<?xml version="1.0" encoding="UTF-8" standalone="no"?>
<!-- Created with Inkscape (http://www.inkscape.org/) -->

<svg
   width="114.64583mm"
   height="114.64583mm"
   viewBox="0 0 114.64582 114.64582"
   version="1.1"
   id="svg5"
   inkscape:version="1.2.2 (b0a8486, 2022-12-01)"
   sodipodi:docname="double_ring.svg"
   xmlns:inkscape="http://www.inkscape.org/namespaces/inkscape"
   xmlns:sodipodi="http://sodipodi.sourceforge.net/DTD/sodipodi-0.dtd"
   xmlns="http://www.w3.org/2000/svg"
   xmlns:svg="http://www.w3.org/2000/svg">
  <sodipodi:namedview
     id="namedview7"
     pagecolor="#505050"
     bordercolor="#eeeeee"
     borderopacity="1"
     inkscape:showpageshadow="0"
     inkscape:pageopacity="0"
     inkscape:pagecheckerboard="0"
     inkscape:deskcolor="#505050"
     inkscape:document-units="mm"
     showgrid="false"
     inkscape:zoom="0.95369198"
     inkscape:cx="-18.874018"
     inkscape:cy="233.82812"
     inkscape:window-width="1512"
     inkscape:window-height="916"
     inkscape:window-x="0"
     inkscape:window-y="38"
     inkscape:window-maximized="0"
     inkscape:current-layer="layer1" />
  <defs
     id="defs2" />
  <g
     inkscape:label="Calque 1"
     inkscape:groupmode="layer"
     id="layer1"
     transform="translate(-33.106765,-45.579825)">
    <g
       id="g2528">
      <path
         id="path236"
         style="fill:none;fill-opacity:0.221757;stroke:#000000;stroke-width:2.64583"
         d="m 146.42968,102.90274 a 56,56 0 0 1 -56,56 56,56 0 0 1 -56,-56 56,56 0 0 1 56,-56 56,56 0 0 1 56,56 z" />
      <path
         id="path238"
         style="fill:none;fill-opacity:0.221757;stroke:#000000;stroke-width:2.64583"
         d="m 140.42968,102.90274 a 50,50 0 0 1 -50,50 50,50 0 0 1 -50,-50 50,50 0 0 1 50,-50 50,50 0 0 1 50,50 z" />
    </g>
  </g>
</svg>
