<?xml version="1.0" encoding="UTF-8" standalone="no"?>
<!-- Created with Inkscape (http://www.inkscape.org/) -->

<svg
   width="114.90311mm"
   height="114.85261mm"
   viewBox="0 0 114.9031 114.8526"
   version="1.1"
   id="svg5"
   sodipodi:docname="rough_double_ring.svg"
   inkscape:version="1.2.2 (b0a8486, 2022-12-01)"
   xmlns:inkscape="http://www.inkscape.org/namespaces/inkscape"
   xmlns:sodipodi="http://sodipodi.sourceforge.net/DTD/sodipodi-0.dtd"
   xmlns="http://www.w3.org/2000/svg"
   xmlns:svg="http://www.w3.org/2000/svg">
  <sodipodi:namedview
     id="namedview7"
     pagecolor="#505050"
     bordercolor="#eeeeee"
     borderopacity="1"
     inkscape:showpageshadow="0"
     inkscape:pageopacity="0"
     inkscape:pagecheckerboard="0"
     inkscape:deskcolor="#505050"
     inkscape:document-units="mm"
     showgrid="false"
     inkscape:zoom="0.95369198"
     inkscape:cx="96.467206"
     inkscape:cy="234.87667"
     inkscape:window-width="1512"
     inkscape:window-height="916"
     inkscape:window-x="0"
     inkscape:window-y="38"
     inkscape:window-maximized="0"
     inkscape:current-layer="layer1" />
  <defs
     id="defs2">
    <inkscape:path-effect
       effect="roughen"
       id="path-effect2541"
       is_visible="true"
       lpeversion="1.2"
       method="size"
       max_segment_size="2"
       segments="2"
       displace_x="0.666667;104993872"
       displace_y="0.666667;1"
       global_randomize="1;1"
       handles="along"
       shift_nodes="true"
       fixed_displacement="false"
       spray_tool_friendly="false" />
    <inkscape:path-effect
       effect="roughen"
       id="path-effect2539"
       is_visible="true"
       lpeversion="1.2"
       method="size"
       max_segment_size="2.24"
       segments="2"
       displace_x="0.746667;1387936451"
       displace_y="0.746667;1"
       global_randomize="1;1"
       handles="along"
       shift_nodes="true"
       fixed_displacement="false"
       spray_tool_friendly="false" />
  </defs>
  <g
     inkscape:label="Calque 1"
     inkscape:groupmode="layer"
     id="layer1"
     transform="translate(-33.015744,-45.381932)">
    <path
       style="fill:none;fill-opacity:0.221757;stroke:#000000;stroke-width:2.64583;stroke-dasharray:none;stroke-opacity:1"
       id="path236"
       inkscape:path-effect="#path-effect2539"
       sodipodi:type="arc"
       sodipodi:cx="90.42968"
       sodipodi:cy="102.90274"
       sodipodi:rx="56"
       sodipodi:ry="56"
       d="m 146.33701,102.95816 c 0,0.7732 0.21019,1.28413 0.17915,2.04971 0.0992,0.63404 -0.39789,1.75362 -0.46841,2.5813 -0.37268,0.80159 -0.20831,1.2724 -0.29604,1.9824 -0.17068,0.63444 -0.0305,1.47299 -0.16106,2.25668 0.0518,0.67233 -0.289,1.55062 -0.45127,2.32215 -0.16531,0.71911 -0.11762,1.51569 -0.29851,2.23336 0.0228,0.77836 -0.22192,1.20025 -0.42899,1.9029 -0.0811,0.56774 -0.7148,1.65895 -0.98126,2.43414 -0.45304,0.72898 -0.42955,1.27938 -0.67238,1.91072 -0.23956,0.68329 -0.67616,1.42318 -0.964,2.09269 -0.4097,0.69578 -0.46232,1.26141 -0.7553,1.88024 -0.22333,0.66978 -0.5628,1.32323 -0.90192,1.9729 -0.26105,0.65269 -0.86981,0.85524 -1.23371,1.49066 -0.58204,0.26648 -0.73876,1.13991 -1.17093,1.82682 -0.34333,0.41659 -0.54403,1.35681 -0.99758,2.01691 -0.11498,0.6467 -0.96958,1.27613 -1.43267,1.8954 -0.4973,0.56712 -0.98931,1.11605 -1.42456,1.65699 -0.57308,0.53989 -0.88172,1.07272 -1.32422,1.5859 -0.48033,0.55431 -0.88713,1.08586 -1.36247,1.59949 -0.44692,0.55589 -0.96292,0.52886 -1.46448,1.03308 -0.57118,0.0805 -1.03884,1.1885 -1.64685,1.75345 -0.39852,0.52675 -1.29072,1.0137 -1.8493,1.49645 -0.69658,0.4476 -1.3733,1.00149 -1.8811,1.41342 -0.8285,0.52014 -0.91044,0.67055 -1.36973,1.02286 -0.57541,0.38368 -1.14714,0.83417 -1.73085,1.25113 -0.58256,0.38555 -1.26647,0.71655 -1.86241,1.11181 -0.68109,0.28345 -1.04885,0.6596 -1.64742,1.02851 -0.52203,0.29338 -1.28024,0.531 -1.94845,0.90926 -0.631,0.11393 -1.32027,0.69256 -1.99978,1.04695 -0.62755,0.28642 -1.32165,0.64623 -1.97871,0.96129 -0.66858,0.29206 -1.32278,0.23628 -1.97563,0.5224 -0.72765,-0.0647 -1.13592,0.72835 -1.8409,1.01447 -0.46748,0.42228 -1.12811,0.6551 -1.8719,0.9214 -0.43595,0.35473 -1.68876,0.66082 -2.48681,0.89862 -0.79046,0.32415 -1.67115,0.41397 -2.33301,0.57695 -0.97584,0.19254 -1.491464,0.0496 -2.094176,0.17234 -0.950594,-0.0996 -1.599019,0.33888 -2.249574,0.46164 -0.940347,0.19622 -1.359478,-0.29115 -1.995967,-0.19883 -0.805521,-0.41844 -1.614304,0.38174 -2.395032,0.57567 -0.704552,0.17502 -1.172994,0.28924 -1.975867,0.28924 -0.773199,0 -1.913052,-0.14012 -2.678829,-0.17117 -1.009185,-0.15034 -1.337191,0.0729 -1.970276,0.0259 -0.803857,0.0802 -1.734115,-0.20774 -2.467198,-0.2915 -0.917669,-0.1588 -1.292252,-0.19161 -1.947319,-0.29025 -0.720548,-0.14154 -1.341774,-0.69367 -2.081269,-0.83605 -0.594264,-0.59685 -1.274584,-0.49571 -2.01098,-0.66837 -0.551679,-0.37312 -1.581453,-0.74825 -2.33591,-0.9582 -0.704493,-0.55451 -1.317139,-0.65461 -1.958177,-0.85718 -0.67408,-0.48818 -1.32777,-0.97017 -1.970943,-1.19827 -0.633248,-0.76173 -1.212225,-0.69331 -1.810281,-0.92699 -0.632453,-0.49967 -1.122249,-0.49012 -1.742128,-0.75623 -0.552361,-0.28198 -1.623856,-0.48201 -2.296725,-0.80065 -0.841925,-0.15735 -1.116969,-0.51938 -1.690965,-0.81472 -0.597551,-0.28815 -1.317628,-1.33429 -1.948682,-1.68947 -0.543287,-0.94536 -0.92376,-0.60661 -1.424745,-0.90791 -0.524373,-0.39606 -1.171486,-0.65042 -1.773587,-1.04256 -0.557293,-0.29675 -0.919668,-0.83526 -1.517099,-1.25704 -0.329959,-0.46949 -1.542271,-0.81436 -2.154977,-1.28391 -0.798705,-0.30192 -1.016915,-0.79042 -1.5135,-1.19891 -0.54308,-0.44389 -0.800437,-0.82823 -1.324037,-1.29357 -0.311069,-0.44721 -1.113983,-1.07126 -1.677404,-1.61639 -0.462165,-0.5101 -1.060811,-1.1746 -1.551354,-1.68723 -0.499509,-0.64745 -1.073523,-0.86392 -1.505589,-1.34842 -0.640644,-0.43009 -1.03274,-0.98794 -1.468919,-1.51787 -0.570371,-0.49051 -1.024428,-0.99387 -1.443141,-1.54845 -0.578728,-0.47628 -0.840969,-1.00635 -1.24183,-1.59038 -0.427149,-0.48829 -0.854831,-1.12594 -1.251947,-1.77022 -0.411679,-0.51295 -0.755704,-1.65481 -1.121445,-2.32033 -0.278018,-0.90275 -0.590875,-1.06029 -0.870026,-1.61652 -0.331626,-0.62154 -0.771983,-1.50754 -1.07284,-2.18066 -0.394595,-0.78446 -0.600547,-1.14147 -0.843229,-1.75045 -0.352581,-0.62858 -0.701294,-1.22773 -0.942439,-1.93267 -0.41766,-0.56903 -0.477924,-1.69902 -0.686514,-2.44917 -0.179195,-0.87417 -0.536506,-1.34565 -0.687122,-1.99767 -0.354557,-0.7537 -0.269616,-1.38221 -0.391494,-2.09058 -0.09566,-0.72411 -0.213125,-1.5494 -0.305403,-2.30876 -0.06432,-0.78056 -0.171956,-1.9714 -0.234081,-2.71024 -0.06029,-1.1231 -0.204184,-1.17354 -0.238349,-1.74039 -0.156606,-0.74954 -0.0826,-1.44666 -0.07337,-2.23473 0.0085,-0.72471 0.14355,-1.71677 0.14355,-2.54407 0,-0.7732 0.01976,-1.67368 0.0507,-2.43906 0.03331,-0.852515 0.529719,-1.275126 0.585856,-1.988989 0.520179,-0.629373 0.287705,-1.679992 0.382106,-2.463705 0.231392,-0.800447 0.313458,-1.490664 0.423158,-2.184887 0.241292,-0.783974 0.292669,-1.389778 0.426889,-2.075298 0.200785,-0.71991 0.269665,-1.423963 0.435666,-2.128477 0.144505,-0.711884 0.313733,-1.400199 0.507832,-2.101713 0.161017,-0.689912 0.477845,-1.754367 0.70053,-2.452077 0.257175,-0.92154 0.375321,-1.355653 0.578502,-1.927331 0.217085,-0.821714 0.347342,-1.09335 0.589632,-1.704992 0.181097,-0.577728 0.573692,-1.918586 0.889817,-2.627205 0.220608,-1.005454 0.494905,-1.124265 0.746764,-1.643177 0.319658,-0.699101 0.798528,-1.25048 1.126027,-1.863006 0.502789,-0.610589 0.605261,-1.040498 0.952139,-1.633369 0.335133,-0.500227 0.674682,-1.404684 1.093155,-2.05383 0.267583,-0.68051 0.687329,-1.036891 1.100179,-1.6232 0.346504,-0.476318 0.545554,-1.314848 1.023105,-1.932725 0.111034,-0.667395 1.01267,-1.80856 1.520971,-2.406781 0.407035,-1.011691 0.952027,-1.078217 1.335217,-1.498467 0.628852,-0.679479 0.905722,-0.864163 1.343731,-1.309045 0.563584,-0.465465 1.157901,-0.91096 1.688633,-1.404698 0.653681,-0.376688 1.074426,-0.913204 1.619614,-1.379241 0.569049,-0.421705 0.996124,-0.885562 1.571713,-1.33686 0.478245,-0.420511 1.14336,-0.86842 1.769359,-1.315633 0.539506,-0.373908 1.413598,-0.852041 2.050226,-1.266308 0.738918,-0.354205 1.482824,-0.636465 2.064926,-0.985079 0.888816,-0.236569 1.003997,-0.548107 1.562331,-0.858545 0.57135,-0.272177 0.986471,-0.72517 1.671054,-1.071941 0.380513,-0.368377 1.347192,-0.656782 2.111071,-1.001083 0.563168,-0.241328 1.10638,-0.512792 1.836384,-0.806131 0.451878,-0.197722 1.5644,-0.539414 2.367678,-0.822345 0.691851,-0.174363 1.500881,-0.508139 2.209998,-0.730679 0.771291,-0.239204 1.366427,-0.520488 2.038512,-0.707693 0.72713,-0.307255 1.322172,-0.24152 2.019274,-0.406965 0.687053,-0.04832 1.543036,-0.303955 2.300506,-0.457095 0.762903,-0.10639 1.429199,-0.602336 2.152075,-0.726039 0.723488,-0.447364 1.498003,-0.253499 2.235192,-0.324106 0.779268,-0.105947 1.476303,-0.124528 2.223272,-0.151126 0.747979,-0.03643 1.37024,-0.22549 2.142439,-0.225592 0.76712,-1.01e-4 1.637051,0.197893 2.407998,0.197893 0.773198,0 1.760068,0.05139 2.525724,0.08243 0.909415,0.06378 1.677319,-0.0058 2.36258,0.04713 0.958452,-0.02332 1.4697,0.209198 2.124647,0.2832 0.846422,0.174202 1.38496,0.277573 2.07365,0.381717 0.731483,0.218644 1.430553,0.389084 2.157133,0.528849 0.69375,0.292716 1.44378,0.292375 2.16483,0.461139 0.70921,0.166124 1.28707,0.420101 1.99967,0.617241 0.59394,0.274527 1.32765,0.491688 2.06414,0.728905 0.57252,0.299471 1.70735,0.424936 2.43167,0.691765 0.85877,0.163486 1.41075,0.452323 2.02067,0.702097 0.79962,0.240309 1.21359,0.517822 1.82658,0.795599 0.63922,0.298405 1.65448,0.667195 2.30949,0.996281 0.87767,0.326371 1.07156,0.538205 1.61584,0.835473 0.61422,0.32489 1.30478,0.632957 1.93661,1.012412 0.64567,0.290013 1.3499,0.517188 1.96277,0.920457 0.72121,0.157787 1.24599,0.842007 1.85061,1.278178 0.59382,0.430807 0.95499,0.836213 1.52261,1.282593 0.40726,0.462597 1.24044,0.831386 1.83448,1.342469 0.59016,0.340194 0.99383,0.952705 1.54375,1.468431 0.42129,0.482052 0.8775,1.121368 1.41482,1.670299 0.30071,0.602338 1.05073,1.009371 1.56071,1.574318 0.49613,0.463624 1.26815,1.26305 1.74436,1.834551 0.68302,0.62963 0.78485,0.668062 1.16694,1.159582 0.48917,0.339242 1.27627,1.445414 1.74162,2.103544 0.66404,0.674002 0.67433,1.030731 1.0156,1.552377 0.36493,0.619404 0.79029,1.233289 1.16577,1.863052 0.37397,0.624299 0.60885,1.264232 0.95634,1.90544 0.23061,0.660193 0.67586,1.311356 1.00539,1.981702 0.30179,0.651015 0.057,1.382963 0.3555,2.054244 -0.2598,0.774607 0.7566,1.44303 1.05534,2.170032 0.39941,0.663094 0.52232,0.623879 0.77148,1.287334 0.32301,0.186216 0.57403,1.772973 0.86614,2.687681 0.1582,0.701881 0.4721,1.235773 0.67411,1.953204 0.24799,0.581145 0.14117,1.57399 0.32621,2.349489 -0.0981,0.774467 0.0462,1.555365 0.20518,2.28495 -0.13641,0.825868 0.36889,1.376709 0.52405,2.089877 0.21601,0.691989 0.29688,1.35166 0.43729,2.096687 0.12757,0.64033 0.30977,1.338218 0.4222,2.132075 0.14269,0.565494 0.42932,1.525546 0.4837,2.368915 0.0515,0.79851 -0.24979,1.76138 -0.24979,2.4797 z" />
    <path
       style="fill:none;fill-opacity:0.221757;stroke:#000000;stroke-width:2.64583;stroke-dasharray:none;stroke-opacity:1"
       id="path238"
       inkscape:path-effect="#path-effect2541"
       sodipodi:type="arc"
       sodipodi:cx="90.42968"
       sodipodi:cy="102.90274"
       sodipodi:rx="50"
       sodipodi:ry="50"
       d="m 140.50905,102.95222 c 0,0.69036 -0.0118,1.14655 -0.0395,1.8301 0.0513,0.56504 0.26519,1.56361 0.20242,2.30157 0.28549,0.74099 -0.14386,1.18636 -0.22693,1.845 -0.10792,0.577 -0.59913,1.33609 -0.72065,2.04604 -0.51634,0.56929 -0.32545,1.32286 -0.46569,1.98153 -0.22101,0.63651 -0.24949,1.34228 -0.41088,1.97766 -0.12124,0.68131 -0.42796,1.04455 -0.60919,1.65869 -0.29981,0.48042 -0.44671,1.42868 -0.67391,2.09529 -0.2335,0.66695 -0.43293,1.17423 -0.65427,1.75353 -0.25112,0.60316 -0.37834,1.25701 -0.63015,1.84817 -0.15834,0.64761 -0.61341,1.17855 -0.88585,1.75648 -0.36804,0.57293 -0.57097,1.1318 -0.85851,1.68785 -0.31823,0.56788 -0.41094,0.73422 -0.72361,1.28743 -0.20033,0.28943 -0.77397,1.11953 -1.189,1.78172 -0.36258,0.36295 -0.69815,1.19363 -1.09545,1.77443 -0.30307,0.54123 -0.68647,1.06795 -1.07005,1.5866 -0.33085,0.52721 -0.72067,1.03768 -1.122,1.54048 -0.34804,0.51391 -0.8594,1.02064 -1.27968,1.50892 -0.45088,0.49121 -0.80908,0.96218 -1.22975,1.41726 -0.41978,0.49256 -0.89599,0.46476 -1.33987,0.91141 -0.5466,0.0648 -1.11227,1.0472 -1.64712,1.54503 -0.5195,0.43723 -0.55922,0.84007 -1.01825,1.24039 -0.1993,0.48691 -0.62973,1.06547 -1.18799,1.51373 -0.11067,0.5929 -1.14094,0.85006 -1.73156,1.28155 -0.51922,0.33438 -1.05721,0.72825 -1.59865,1.09202 -0.53497,0.33127 -1.14429,0.61392 -1.69467,0.95402 -0.60885,0.23983 -1.24375,0.56256 -1.79895,0.87897 -0.68511,0.20512 -1.07622,0.36304 -1.61757,0.64932 -0.60352,0.0802 -1.1342,0.57619 -1.74037,0.87293 -0.53654,0.24824 -1.15957,0.56223 -1.7683,0.83646 -0.55833,0.25604 -1.16812,0.20156 -1.7781,0.45235 -0.60756,-0.0646 -1.07506,0.6369 -1.73001,0.88605 -0.43519,0.36296 -1.15441,0.55759 -1.82366,0.78303 -0.49515,0.29244 -1.13996,0.54388 -1.81334,0.73703 -0.49315,0.30917 -1.0749,0.40546 -1.77014,0.56347 -0.43886,0.20148 -1.606547,0.0958 -2.364799,0.22016 -0.766495,-0.10906 -1.048122,0.26508 -1.675332,0.35962 -0.510319,0.16939 -1.426678,-0.27222 -2.169517,-0.19759 -0.673766,-0.40196 -1.481167,0.2805 -2.18078,0.43627 -0.693848,0.15449 -1.069208,0.26349 -1.703683,0.26349 -0.690356,0 -1.491356,-0.12511 -2.175206,-0.15283 -0.756696,-0.13717 -0.916355,0.0567 -1.552939,0.007 -0.435526,0.0579 -1.193914,-0.21903 -1.985689,-0.3194 -0.39117,-0.17512 -1.517087,-0.24604 -2.302971,-0.38377 -0.607003,-0.14428 -1.326265,-0.65537 -1.995532,-0.80081 -0.597343,-0.5396 -1.216761,-0.45417 -1.831344,-0.61141 -0.600889,-0.3325 -1.403369,-0.66431 -2.019891,-0.84626 -0.69949,-0.49334 -1.078102,-0.57952 -1.612994,-0.75578 -0.582161,-0.44403 -1.153512,-0.88233 -1.729189,-1.09371 -0.535739,-0.68849 -1.085214,-0.63567 -1.623925,-0.85247 -0.555694,-0.4515 -0.992914,-0.44796 -1.544052,-0.69019 -0.48611,-0.2564 -0.846243,-0.43913 -1.444202,-0.7273 -0.305777,-0.21748 -1.191781,-0.62249 -1.850519,-0.97259 -0.445406,-0.27595 -1.192042,-1.22888 -1.773569,-1.56508 -0.462696,-0.84885 -1.01183,-0.5508 -1.456813,-0.82386 -0.609394,-0.32803 -1.025464,-0.52754 -1.514266,-0.8481 -0.556513,-0.25168 -1.328125,-0.71791 -1.840059,-1.07862 -0.727428,-0.3332 -0.860464,-0.55077 -1.292908,-0.8754 -0.493156,-0.30576 -1.081197,-0.77938 -1.579336,-1.18282 -0.532788,-0.38102 -0.706275,-0.70792 -1.163579,-1.10622 -0.291043,-0.38968 -0.985099,-0.9365 -1.488205,-1.41213 -0.407966,-0.44944 -0.973191,-1.03628 -1.41557,-1.48711 -0.464061,-0.56839 -1.099173,-0.75152 -1.485891,-1.17353 -0.694711,-0.35376 -0.773175,-0.82049 -1.147329,-1.26124 -0.413668,-0.44806 -0.946752,-0.90783 -1.339949,-1.41358 -0.513562,-0.41823 -1.077926,-0.88417 -1.441713,-1.398 -0.67068,-0.38227 -0.672759,-0.89601 -1.002799,-1.41387 -0.341641,-0.45979 -0.716001,-1.48121 -1.052093,-2.07743 -0.270073,-0.80262 -0.502515,-0.93984 -0.754819,-1.43299 -0.269659,-0.55848 -0.741791,-1.35323 -1.015489,-1.95803 -0.392146,-0.69616 -0.327874,-1.01064 -0.543991,-1.55005 -0.115223,-0.58283 -0.452203,-1.13989 -0.678265,-1.79193 -0.185725,-0.52043 -0.445546,-1.54215 -0.646203,-2.22513 -0.167298,-0.77456 -0.330374,-1.18949 -0.476835,-1.76555 -0.165436,-0.67431 -0.544144,-1.23685 -0.678072,-1.87074 -0.374611,-0.62666 -0.336258,-1.34336 -0.430487,-2.00086 -0.179299,-0.69531 -0.154187,-1.75696 -0.205139,-2.41507 -0.03478,-1.00434 -0.0292,-1.05085 -0.05128,-1.55849 0.01416,-0.66912 -0.322922,-1.29165 -0.341118,-1.9955 -0.01673,-0.64737 0.181815,-1.53354 0.181815,-2.27265 0,-0.69036 -0.06929,-1.49436 -0.0415,-2.17774 -0.05703,-0.76348 0.530987,-1.1431 0.581763,-1.782739 0.522197,-0.560674 0.153108,-1.497475 0.237911,-2.195981 0.10321,-0.720349 -0.05681,-1.34221 0.04311,-1.967574 -0.119384,-0.723059 0.194884,-1.286733 0.321913,-1.921251 0.107083,-0.653815 0.287995,-1.293296 0.442921,-1.932998 0.17012,-0.638111 0.270287,-1.255113 0.449328,-1.883832 0.130945,-0.622817 0.506553,-1.579902 0.713744,-2.209383 0.29883,-0.819554 0.346974,-1.20393 0.53271,-1.711157 0.204384,-0.736475 0.38285,-0.981725 0.606852,-1.530464 0.22597,-0.511181 0.555076,-1.703784 0.843348,-2.331947 0.232971,-0.895565 0.440955,-0.999496 0.670945,-1.460673 0.283092,-0.626739 0.60535,-1.121475 0.906975,-1.670697 0.341846,-0.564112 0.300487,-0.966352 0.630431,-1.513526 0.05928,-0.491171 0.63672,-1.341786 1.053421,-1.962895 0.215116,-0.616055 0.781443,-0.942306 1.172044,-1.473433 0.437315,-0.402336 0.456982,-1.128652 0.88345,-1.658564 0.08837,-0.599856 0.892565,-1.622399 1.368783,-2.159836 0.330979,-0.911885 0.963062,-0.979462 1.328193,-1.362449 0.632057,-0.590405 0.87728,-0.739458 1.269359,-1.121269 0.570117,-0.397804 0.795123,-0.778359 1.269084,-1.202584 0.400704,-0.371506 1.382108,-0.883759 1.931181,-1.33109 0.763171,-0.316048 1.20456,-0.672317 1.663683,-1.020015 0.762579,-0.299148 0.780189,-0.626495 1.248352,-0.957051 0.428416,-0.342899 1.433213,-0.77842 2.018523,-1.156474 0.763405,-0.294378 0.729922,-0.525736 1.215093,-0.817592 0.393861,-0.291805 1.33628,-0.645794 1.974464,-0.99386 0.642253,-0.214812 0.892183,-0.592674 1.460969,-0.877396 0.411306,-0.314351 1.248913,-0.558348 1.906255,-0.853369 0.570445,-0.204064 1.072819,-0.435933 1.697606,-0.688299 0.50069,-0.16364 1.380939,-0.457011 2.054765,-0.699255 0.660774,-0.154228 0.911886,-0.45111 1.523606,-0.649046 0.408806,-0.255725 1.436907,-0.545058 2.163948,-0.746006 0.637034,-0.274139 1.285453,-0.215004 1.917557,-0.362053 0.679267,-0.03357 1.411245,-0.253213 2.058402,-0.382475 0.745964,-0.08846 1.331042,-0.525553 1.945508,-0.631303 0.725493,-0.395097 1.18616,-0.220271 1.802564,-0.283179 0.634986,-0.101266 1.377517,-0.12147 2.076951,-0.147165 0.670349,-0.03317 1.365913,-0.202649 2.055444,-0.203262 0.68307,-6.08e-4 1.247564,0.175772 1.938037,0.175772 0.690356,0 1.368405,0.04588 2.052104,0.0736 0.676764,0.05969 0.952729,0.0029 1.631373,0.05804 0.400898,-1.65e-4 1.584948,0.237425 2.390858,0.342525 0.63367,0.17342 1.262465,0.285616 1.931046,0.400457 0.591898,0.212295 1.532294,0.382273 2.202316,0.52556 0.75856,0.259546 1.12255,0.254633 1.69492,0.397984 0.61438,0.159116 0.99292,0.396525 1.63069,0.58304 0.41311,0.26766 1.49161,0.48554 2.18991,0.72271 0.66195,0.253943 1.35026,0.349544 1.92643,0.568478 0.74203,0.153796 1.19347,0.419416 1.74214,0.650061 0.65566,0.227104 1.18366,0.487716 1.74648,0.748841 0.61506,0.261362 1.053,0.584352 1.61461,0.870716 0.50089,0.3423 1.16422,0.585267 1.73988,0.907346 0.55709,0.289356 1.11523,0.562789 1.66629,0.899089 0.55254,0.262364 1.14246,0.468109 1.68781,0.830584 0.59192,0.147824 1.06139,0.765429 1.60733,1.161319 0.47433,0.390683 0.68044,0.758445 1.1941,1.162554 0.20866,0.436122 1.16561,0.789145 1.72582,1.269833 0.51916,0.29644 0.61956,0.83512 1.10609,1.28652 0.15983,0.461163 1.16295,1.063714 1.68216,1.586471 0.51892,0.479136 0.86535,0.781152 1.27442,1.221558 0.4679,0.397518 0.51289,1.09395 0.93737,1.586014 0.0802,0.647114 0.82397,0.76885 1.24887,1.297475 0.39437,0.290776 0.83246,1.265472 1.25864,1.839335 0.31131,0.632333 0.71318,0.981971 1.05906,1.479399 0.36116,0.52541 0.71407,1.044848 1.05882,1.577476 0.34523,0.533085 0.69532,1.079281 1.02335,1.625811 0.33893,0.548583 0.63575,1.087941 0.94348,1.643334 0.30351,0.55649 1.03197,1.184558 1.32335,1.757817 0.6764,0.561272 0.53815,1.025209 0.77429,1.539068 0.3028,0.593398 0.51687,0.559742 0.75771,1.153477 0.30869,0.162614 0.67309,1.575448 0.94162,2.388048 0.26999,0.617973 0.35937,1.085676 0.5345,1.71705 0.15637,0.528653 0.44467,1.425249 0.60335,2.128028 0.22323,0.675732 -0.0391,1.356874 0.075,1.99202 -0.19219,0.741975 0.29267,1.238502 0.40024,1.880047 0.17709,0.627397 0.2391,1.226059 0.32967,1.900986 0.11776,0.579491 0.18286,1.210534 0.24505,1.927255 0.0729,0.510953 0.31091,1.374536 0.33823,2.133628 0.0257,0.71354 -0.0893,1.57366 -0.0893,2.21593 z" />
  </g>
</svg>
