<?xml version="1.0" encoding="UTF-8" standalone="no"?>
<!-- Uploaded to: SVG Repo, www.svgrepo.com, Generator: SVG Repo Mixer Tools -->

<svg
   height="804.65039"
   width="836.79102"
   version="1.1"
   id="Capa_1"
   viewBox="0 0 50.144702 48.218675"
   xml:space="preserve"
   sodipodi:docname="rough-empty-star.svg"
   inkscape:export-filename="../Documents/Foundry/Data/systems/trouilleville/assets/empty-star.svg"
   inkscape:export-xdpi="96"
   inkscape:export-ydpi="96"
   inkscape:version="1.2.2 (b0a8486, 2022-12-01)"
   xmlns:inkscape="http://www.inkscape.org/namespaces/inkscape"
   xmlns:sodipodi="http://sodipodi.sourceforge.net/DTD/sodipodi-0.dtd"
   xmlns="http://www.w3.org/2000/svg"
   xmlns:svg="http://www.w3.org/2000/svg"><defs
   id="defs7"><inkscape:path-effect
     effect="roughen"
     id="path-effect364"
     is_visible="true"
     lpeversion="1.2"
     method="size"
     max_segment_size="0.916932"
     segments="2"
     displace_x="0.319599;25165823"
     displace_y="0.305644;1"
     global_randomize="1;1"
     handles="along"
     shift_nodes="true"
     fixed_displacement="false"
     spray_tool_friendly="false" /></defs><sodipodi:namedview
   id="namedview5"
   pagecolor="#505050"
   bordercolor="#eeeeee"
   borderopacity="1"
   inkscape:showpageshadow="0"
   inkscape:pageopacity="0"
   inkscape:pagecheckerboard="0"
   inkscape:deskcolor="#505050"
   showgrid="false"
   inkscape:zoom="0.295"
   inkscape:cx="16.949153"
   inkscape:cy="400"
   inkscape:window-width="1463"
   inkscape:window-height="456"
   inkscape:window-x="0"
   inkscape:window-y="38"
   inkscape:window-maximized="0"
   inkscape:current-layer="Capa_1" />
<path
   style="fill:none;stroke:#000000;stroke-width:2.31838;stroke-dasharray:none;stroke-opacity:1"
   d="m 27.433055,2.6229568 0.243902,0.686638 0.233706,0.9334042 0.417641,0.7707373 0.628854,0.7875416 0.329358,0.732813 0.367744,0.8240959 0.389053,0.6793059 0.525055,0.8887798 0.346239,0.71805 0.415268,0.8117915 0.358062,0.754385 0.378989,0.786053 0.380907,0.60535 0.393846,0.857504 c 0.121332,0.289597 0.292947,0.54554 0.485725,0.75699 0.201466,0.214281 0.418003,0.38411 0.65942,0.511252 0.244591,0.128815 0.51768,0.214612 0.799845,0.255544 l 0.853634,0.135147 1.12155,0.139313 0.633869,-0.117309 0.887339,0.157869 0.970866,0.149973 0.742095,0.187849 0.831993,0.112986 0.874681,0.130412 0.851156,0.09973 0.868115,0.109322 0.860032,0.05702 0.985045,0.182706 0.771601,0.18674 0.827261,0.06952 c 0.302396,0.06553 0.504014,0.227526 0.751279,0.371058 0.175966,0.198297 0.718001,0.357967 0.908953,0.561633 0.396819,0.195751 0.100734,0.393368 0.199587,0.580872 -0.04754,0.299802 0.102708,0.524127 0.157177,0.790312 -0.07005,0.272701 0.107246,0.417288 0.09715,0.673301 0.016,0.179817 -0.06647,0.605884 -0.191333,0.893814 -0.11089,0.255716 -0.338919,0.25638 -0.553919,0.465906 l -0.751875,0.640861 -0.523247,0.558789 -0.625195,0.585405 -0.442708,0.711975 -0.793359,0.65412 -0.33038,0.582408 -0.761613,0.559215 -0.765147,0.640542 -0.639736,0.497778 -0.668833,0.610788 -0.65353,0.502572 -0.64596,0.722449 -0.579748,0.781722 -0.505549,0.745444 c -0.203082,0.181256 -0.40469,0.415422 -0.5308,0.653647 -0.159658,0.253186 -0.19274,0.217995 -0.227063,0.480169 -0.03531,0.269694 -0.02932,0.809307 0.01936,1.092252 l 0.271015,0.90351 0.09777,0.791926 0.09166,0.912646 0.156343,0.834121 0.08296,0.888188 0.119964,0.834064 0.08014,0.798282 0.09124,0.97654 0.119062,0.860265 0.248861,0.883806 0.321153,0.859901 0.08871,0.834993 0.213617,0.666726 0.150651,1.021321 c 0.0413,0.299202 -0.01218,0.512672 -0.06482,0.785849 -0.09904,0.211391 -0.196879,0.584227 -0.335166,0.832507 -0.161009,0.242228 -0.288519,0.480677 -0.457406,0.655055 -0.19192,0.24304 -0.364645,0.2327 -0.573014,0.350211 -0.237088,0.03967 -0.378479,0.215539 -0.648033,0.276169 -0.157758,0.03972 -0.674375,0.09386 -0.995758,0.05892 -0.283467,-0.03082 -0.438861,-0.136968 -0.696512,-0.272323 l -0.774027,-0.613133 -0.729182,-0.343005 -0.725207,-0.353008 -0.810692,-0.481445 -0.771608,-0.433486 -0.992888,-0.304681 -0.65934,-0.360173 -0.667496,-0.4117 -0.797902,-0.410735 -0.829473,-0.396402 -0.773676,-0.371826 -0.763806,-0.531057 -0.76026,-0.399033 -0.820611,-0.193906 c -0.246005,-0.151795 -0.504454,-0.447937 -0.774827,-0.500772 -0.275658,-0.249877 -0.576061,-0.03394 -0.859765,0.06376 -0.262048,0.09024 -0.54876,0.249429 -0.789481,0.375871 l -0.640516,0.475369 -0.754245,0.404947 -1.146478,0.508307 -0.60657,0.252321 -0.717181,0.139446 -0.892915,0.393108 -0.995321,0.466202 -0.473614,0.389788 -0.715803,0.486687 -0.81774,0.47809 -0.741169,0.442327 -0.690444,0.418188 -0.810705,0.464761 -0.812932,0.40706 c -0.26533,0.136451 -0.569442,0.223188 -0.840781,0.260997 -0.293127,0.03907 -0.538808,0.06165 -0.789039,0.01727 -0.279769,-0.01464 -0.352049,-0.08945 -0.583975,-0.214578 C 10.735487,46.721349 10.288783,46.506686 10.065619,46.27095 9.8566139,46.109355 9.6566397,45.850084 9.5344724,45.612154 9.3395614,45.364057 9.3138462,45.078486 9.2838446,44.81624 c -0.032011,-0.279813 0.048212,-0.472131 0.099417,-0.77045 l 0.1680998,-0.84814 0.1325834,-1.00775 0.1256063,-0.751522 0.1682675,-0.853609 0.1564894,-0.934775 0.08516,-0.785598 0.225063,-0.856084 -0.01251,-0.897701 0.197799,-0.818409 0.171527,-0.849004 0.301283,-0.841241 0.123745,-0.9142 0.05293,-0.839645 0.208264,-0.871647 c 0.02271,-0.287423 0.02057,-0.600752 -0.03304,-0.877125 -0.03944,-0.300243 -0.190848,-0.536949 -0.32087,-0.774658 -0.132726,-0.242651 -0.243292,-0.460967 -0.448044,-0.660668 L 10.143144,29.074223 9.4915823,28.404481 8.8609925,27.754237 8.2576674,27.060759 7.6960197,26.507573 6.837513,25.885587 6.3598339,25.322971 5.7323148,24.715093 5.0392951,24.150655 4.4527139,23.529943 3.7435617,22.999367 3.0923773,22.265181 2.3338564,21.811302 1.8909288,21.140944 C 1.6763213,20.927123 1.5096267,20.69041 1.3876935,20.44139 1.2658169,20.19213 1.2078373,19.933277 1.1722958,19.669003 c -0.016345,-0.261788 -0.022127,-0.533425 0.021137,-0.793285 0.050981,-0.259753 0.0019,-0.482329 0.115832,-0.715961 0.00535,-0.232856 0.3400715,-0.495174 0.5667651,-0.703994 0.2237336,-0.17381 0.4130573,-0.614834 0.6522767,-0.737299 0.2519361,-0.128975 0.5145101,0.06158 0.8120462,0.01845 l 0.9637802,-0.195392 0.8880622,-0.08299 0.8983005,-0.06044 0.9338789,-0.128603 0.6658701,-0.153666 0.8496437,-0.214938 0.7573808,-0.160867 1.0034607,-0.09448 0.804582,-0.100372 0.971143,-0.07658 0.949496,-0.06554 0.636676,-0.177618 0.904711,-0.135172 0.906701,-0.102255 c 0.269879,-0.04393 0.549718,-0.105507 0.791294,-0.231477 0.261633,-0.100069 0.555085,-0.282472 0.744188,-0.486071 0.187673,-0.20206 0.399233,-0.391215 0.524091,-0.644251 l 0.438482,-0.745555 0.321919,-0.73625 0.42216,-0.913293 0.296966,-0.722491 0.283347,-0.9503275 0.251853,-0.7766634 0.320216,-0.7723645 0.278275,-0.7924293 0.482568,-0.8592632 0.331284,-0.7190603 0.476815,-1.0110186 0.363336,-0.58715 0.62033,-0.6897069 0.419506,-0.7096977 c 0.12843,-0.2785321 0.28481,-0.5669429 0.477648,-0.765984 0.180189,-0.2455002 0.323099,-0.3342672 0.555301,-0.4510895 0.180121,-0.1145822 0.568056,-0.2185822 0.863868,-0.2523785 0.272285,-0.03264 0.550529,0.01866 0.805187,0.062277 0.282585,0.082488 0.419697,0.116312 0.642687,0.2203766 0.184448,0.1183315 0.528405,0.1701041 0.747048,0.368784 0.207615,0.1886593 0.367697,0.5306403 0.500647,0.8000498 z"
   id="path2"
   inkscape:path-effect="#path-effect364"
   inkscape:original-d="m 27.422677,2.6101968 5.407,10.9560002 c 0.376,0.762 1.103,1.29 1.944,1.412 l 12.091,1.757 c 2.118,0.308 2.963,2.91 1.431,4.403 l -8.749,8.528 c -0.608,0.593 -0.886,1.448 -0.742,2.285 l 2.065,12.042 c 0.362,2.109 -1.852,3.717 -3.746,2.722 l -10.814,-5.685 c -0.752,-0.395 -1.651,-0.395 -2.403,0 l -10.814,5.685 c -1.894,0.996 -4.1080004,-0.613 -3.7460004,-2.722 l 2.0650004,-12.042 c 0.144,-0.837 -0.134,-1.692 -0.742,-2.285 l -8.7490004,-8.528 c -1.53200007,-1.494 -0.687,-4.096 1.431,-4.403 l 12.0910004,-1.757 c 0.841,-0.122 1.568,-0.65 1.944,-1.412 l 5.407,-10.9560002 c 0.946,-1.919 3.682,-1.919 4.629,0 z" />
</svg>
