<?xml version="1.0" encoding="UTF-8" standalone="no"?>
<!-- Uploaded to: SVG Repo, www.svgrepo.com, Generator: SVG Repo Mixer Tools -->

<svg
   height="806.49475"
   width="846.19153"
   version="1.1"
   id="Capa_1"
   viewBox="0 0 50.708027 48.329198"
   xml:space="preserve"
   sodipodi:docname="rough-filled-star.svg"
   inkscape:export-filename="../Documents/Foundry/Data/systems/trouilleville/assets/rough-filled-star.svg"
   inkscape:export-xdpi="96"
   inkscape:export-ydpi="96"
   inkscape:version="1.2.2 (b0a8486, 2022-12-01)"
   xmlns:inkscape="http://www.inkscape.org/namespaces/inkscape"
   xmlns:sodipodi="http://sodipodi.sourceforge.net/DTD/sodipodi-0.dtd"
   xmlns:xlink="http://www.w3.org/1999/xlink"
   xmlns="http://www.w3.org/2000/svg"
   xmlns:svg="http://www.w3.org/2000/svg"><defs
   id="defs7"><inkscape:path-effect
     effect="roughen"
     id="path-effect3235"
     is_visible="true"
     lpeversion="1.2"
     method="size"
     max_segment_size="0.916932"
     segments="3"
     displace_x="0.52;221217747"
     displace_y="0.81;1"
     global_randomize="1;1"
     handles="along"
     shift_nodes="true"
     fixed_displacement="false"
     spray_tool_friendly="false" /><pattern
     inkscape:collect="always"
     xlink:href="#Strips1_1"
     id="pattern3120"
     patternTransform="matrix(4.6954673,3.4284464,1.4740131,-2.0187515,37.006454,40.50043)" /><pattern
     inkscape:collect="always"
     patternUnits="userSpaceOnUse"
     width="2"
     height="1"
     patternTransform="translate(0,0) scale(10,10)"
     id="Strips1_1"
     inkscape:stockid="Stripes 1:1"
     inkscape:isstock="true"><rect
       style="fill:black;stroke:none"
       x="0"
       y="-0.5"
       width="1"
       height="2"
       id="rect1925" /></pattern></defs><sodipodi:namedview
   id="namedview5"
   pagecolor="#505050"
   bordercolor="#eeeeee"
   borderopacity="1"
   inkscape:showpageshadow="0"
   inkscape:pageopacity="0"
   inkscape:pagecheckerboard="0"
   inkscape:deskcolor="#505050"
   showgrid="false"
   inkscape:zoom="0.295"
   inkscape:cx="25.423729"
   inkscape:cy="400"
   inkscape:window-width="1463"
   inkscape:window-height="456"
   inkscape:window-x="0"
   inkscape:window-y="38"
   inkscape:window-maximized="0"
   inkscape:current-layer="Capa_1" />
<path
   style="fill:url(#pattern3120);fill-opacity:1;fill-rule:nonzero;stroke:#000000;stroke-width:2.31838;stroke-dasharray:none;stroke-opacity:1"
   d="m 27.593828,2.658371 0.157381,0.5283341 0.339254,1.0814887 0.344755,0.5909131 0.395421,0.8150253 0.530432,0.8946153 0.487506,0.8304013 0.575438,0.4447363 0.433023,1.0160616 0.308937,0.708001 0.398458,0.8695193 0.341906,0.731315 0.275656,0.794126 0.228085,0.336862 0.525264,0.997774 c 0.09562,0.348337 0.102017,0.650389 0.283366,0.887946 0.05517,0.264366 0.277058,0.45528 0.576044,0.589319 0.262033,0.117472 0.689016,0.192995 0.950884,0.230983 l 0.935254,0.151066 0.952415,0.150181 0.728395,-0.449294 0.928883,0.215177 0.659058,0.191009 1.119379,0.364829 0.768365,0.06741 0.867113,0.118187 0.866528,0.04248 0.845698,0.06536 0.923689,-0.06464 0.921978,0.269417 0.890497,0.299563 0.673656,-0.07645 c 0.310379,0.101066 0.221174,0.38051 0.474304,0.550147 -0.08086,0.335148 0.815785,0.513069 1.044878,0.766181 0.394513,0.237568 0.416073,0.447599 0.515454,0.608387 0.27862,0.3292 0.426518,0.421991 0.481595,0.610694 0.311812,0.341139 0.201875,0.327479 0.107441,0.611119 0.03914,0.02611 -0.07312,0.725351 -0.330598,1.071837 -0.179407,0.241431 -0.572152,-0.176195 -0.762646,0.0095 l -0.667324,0.6932 -0.578858,0.617911 -0.789241,0.513841 -0.609636,0.80129 -0.655028,0.485908 -0.441826,0.631024 -0.751957,0.263553 -0.817485,0.75 -0.702034,0.428576 -0.683228,0.696584 -0.633791,0.396964 -0.671234,1.011229 -0.438987,1.050545 -0.341006,0.892491 c -0.206713,0.154177 -0.643679,0.400536 -0.771403,0.626725 -0.393962,0.271167 -0.116208,-0.252017 -0.09374,-8.42e-4 0.0232,0.259292 0.07895,1.219504 0.12771,1.502941 l 0.312695,0.97507 0.221367,0.703182 0.46486,0.973437 0.09543,0.743702 0.197125,0.944626 0.115073,0.765971 0.02351,0.692284 0.09112,1.151616 0.202998,0.829211 0.133913,0.913097 -0.0716,0.918516 0.07509,0.862462 0.07263,0.339444 0.154454,1.293751 c 0.04595,0.295763 0.02462,0.381197 -0.0246,0.651847 -0.07391,0.120097 -0.304718,0.69483 -0.470387,0.973903 -0.23708,0.251654 -0.428292,0.529136 -0.569235,0.682593 -0.311275,0.303684 -0.243512,-0.0066 -0.372751,0.08867 -0.236985,-0.07454 -0.368863,0.265181 -0.639336,0.360775 -0.135313,0.03304 -0.441461,0.174587 -0.761477,0.162833 -0.273997,-0.01006 -0.708088,-0.152139 -0.976225,-0.293003 l -0.767066,-0.954814 -0.529318,-0.249387 -0.803843,-0.309722 -0.874296,-0.574381 -0.597781,-0.458946 -0.919325,-0.180656 -0.722119,-0.463925 -0.766873,-0.449654 -0.775141,-0.338794 -0.808987,-0.337348 -0.774731,-0.311307 -0.833041,-0.714988 -0.794274,-0.356311 -0.994026,0.230982 c -0.192512,-0.18501 -0.418528,-0.824983 -0.665126,-0.89258 -0.281867,-0.594505 -0.602286,0.0127 -0.909216,0.219073 -0.225934,0.151913 -0.526877,0.39982 -0.739442,0.511473 l -0.652209,0.589717 -0.904241,0.317705 -0.460169,0.547961 -0.931125,0.394324 -0.818676,-0.240428 -0.830002,0.33888 -0.747969,0.64062 -0.772851,0.626368 -0.831719,0.481319 -0.728963,0.431727 -0.712761,0.446594 -0.789532,0.384058 -0.724734,0.459095 -0.963099,0.377308 c -0.250672,0.126822 -0.791125,0.209623 -1.051694,0.240358 -0.45043,0.02699 -0.462635,0.105241 -0.624735,0.08834 -0.375081,0.05842 -0.429317,0.0257 -0.642325,-0.08281 -0.236147,-0.0251 -0.62089,-0.302712 -0.8302089,-0.588702 -0.240589,-0.15313 -0.2494939,-0.535433 -0.335457,-0.834254 -0.029136,-0.287163 -0.064693,-0.640606 -0.08983,-0.909157 -0.026658,-0.284792 -0.4245827,-0.31135 -0.3742409,-0.60464 l 0.3529805,-0.828335 0.044041,-1.230991 0.145932,-0.590125 0.1669661,-0.837606 0.1490194,-1.067529 0.09271,-0.67329 0.2119827,-0.838338 0.171101,-0.981153 0.217552,-0.6898 0.453768,-0.844115 0.05579,-0.800289 0.120392,-1.047611 0.15625,-0.801721 -0.01175,-0.883512 c 0.07468,-0.301321 -0.102368,-0.667998 -0.132878,-0.950548 -0.223904,-0.329649 -0.238755,-0.508793 -0.300184,-0.723101 -0.07268,-0.253548 -0.0062,-0.469854 -0.225887,-0.684099 L 10.007236,29.116913 9.4035769,28.475064 8.8164621,27.776664 8.3245889,26.930321 7.7575621,26.425337 6.7628852,25.812357 6.3523781,25.231374 5.9664961,24.658014 5.2888839,24.076874 4.5687187,23.349784 3.5379944,22.990031 3.1225796,22.144359 2.4845362,21.890191 1.8919715,21.159835 C 1.6795754,20.945366 1.513846,20.707544 1.3935375,20.458048 1.2724479,20.207951 1.2089287,19.953378 1.1745207,19.689009 c -0.023323,-0.259817 -0.021178,-0.541212 0.024062,-0.803011 0.051087,-0.263195 0.3290203,-0.439393 0.4441798,-0.672379 0.3129121,-0.153936 0.1356479,-0.422552 0.2771044,-0.614591 0.067906,-0.208427 0.3823218,-1.160732 0.6392333,-1.311012 0.2383565,-0.139427 0.4796715,0.5098 0.781248,0.466087 l 0.8945775,-0.310724 0.5637902,-0.04339 0.9982758,-0.02499 0.9718419,-0.19625 0.9268294,-0.265504 0.8271178,-0.340498 0.9281503,-0.19868 0.7968068,0.01011 0.844113,-0.05169 1.067346,0.03048 0.649394,0.04688 0.766022,-0.29133 0.971878,-0.08931 0.73368,-0.0107 c 0.34001,-0.04932 0.704764,-0.07096 0.977508,-0.199322 0.332489,-0.05961 0.303172,-0.273557 0.49104,-0.490105 0.184536,-0.212707 0.402521,-0.337806 0.526733,-0.589534 l 0.336544,-0.684471 0.204325,-0.738688 0.669563,-1.160767 0.618416,-0.57771 0.23973,-1.0661943 0.384548,-0.7033493 0.150826,-0.6250174 0.205943,-0.8193541 0.482394,-0.9599808 0.497267,-0.690935 0.465364,-1.3308103 0.20833,-0.3481433 0.476185,-0.627268 0.713474,-0.7008802 c 0.118262,-0.2857751 0.301334,-0.662355 0.486702,-0.8667175 0.192026,-0.3148159 0.376357,-0.2841027 0.579029,-0.397238 0.25753,-0.084765 0.620274,-0.2277337 0.881507,-0.2707633 0.352895,-0.046039 0.546192,0.065757 0.761923,0.092764 0.333161,0.135682 0.368646,0.089719 0.568426,0.1761792 0.175033,0.1146652 0.508503,-0.00347 0.732448,0.2130191 0.193541,0.187098 0.515706,0.7220066 0.655432,1.0051477 z"
   id="path2"
   inkscape:path-effect="#path-effect3235"
   inkscape:original-d="m 27.439199,2.6245551 5.407,10.9559999 c 0.376,0.762 1.103,1.29 1.944,1.412 l 12.091,1.757 c 2.118,0.308 2.963,2.91 1.431,4.403 l -8.749,8.528 c -0.608,0.593 -0.886,1.448 -0.742,2.285 l 2.065,12.042 c 0.362,2.109 -1.852,3.717 -3.746,2.722 l -10.814,-5.685 c -0.752,-0.395 -1.651,-0.395 -2.403,0 l -10.814,5.685 c -1.894,0.996 -4.1080004,-0.613 -3.7460004,-2.722 l 2.0650004,-12.042 c 0.144,-0.837 -0.134,-1.692 -0.742,-2.285 l -8.7490004,-8.528 c -1.53200009,-1.494 -0.687,-4.096 1.431,-4.403 l 12.0910004,-1.757 c 0.841,-0.122 1.568,-0.65 1.944,-1.412 l 5.407,-10.9559999 c 0.946,-1.91900008 3.682,-1.91900008 4.629,0 z" />
</svg>
